<svg width="49" height="49" viewBox="0 0 49 49" fill="none" xmlns="http://www.w3.org/2000/svg">
<path d="M6.82437 15.8799C7.28609 14.7652 7.96285 13.7524 8.816 12.8993C9.66914 12.0461 10.682 11.3694 11.7966 10.9077C12.9113 10.4459 14.1061 10.2083 15.3126 10.2083C16.5191 10.2083 17.7138 10.4459 18.8285 10.9077C19.9432 11.3694 20.956 12.0461 21.8092 12.8993L24.5001 15.5902L27.191 12.8993C28.914 11.1763 31.2509 10.2083 33.6876 10.2083C36.1243 10.2083 38.4612 11.1763 40.1842 12.8993C41.9072 14.6223 42.8751 16.9592 42.8751 19.3959C42.8751 21.8326 41.9072 24.1694 40.1842 25.8924L24.5001 41.5765L8.816 25.8924C7.96285 25.0393 7.28609 24.0265 6.82437 22.9118C6.36265 21.7971 6.125 20.6024 6.125 19.3959C6.125 18.1893 6.36265 16.9946 6.82437 15.8799Z" stroke="#7C6A0A" stroke-width="4.08333" stroke-linecap="round" stroke-linejoin="round"/>
</svg>
