<svg width="45" height="45" viewBox="0 0 45 45" fill="none" xmlns="http://www.w3.org/2000/svg">
<path d="M5.5625 5.8125H9.27083L10.0125 9.52083M10.0125 9.52083H38.9375L31.5208 24.3542H12.9792M10.0125 9.52083L12.9792 24.3542M12.9792 24.3542L8.72756 28.6058C7.55944 29.7739 8.3864 31.7708 10.0385 31.7708H31.5208M31.5208 31.7708C30.5373 31.7708 29.5941 32.1615 28.8986 32.857C28.2032 33.5524 27.8125 34.4957 27.8125 35.4792C27.8125 36.4627 28.2032 37.4059 28.8986 38.1014C29.5941 38.7968 30.5373 39.1875 31.5208 39.1875C32.5043 39.1875 33.4476 38.7968 34.143 38.1014C34.8385 37.4059 35.2292 36.4627 35.2292 35.4792C35.2292 34.4957 34.8385 33.5524 34.143 32.857C33.4476 32.1615 32.5043 31.7708 31.5208 31.7708ZM16.6875 35.4792C16.6875 36.4627 16.2968 37.4059 15.6014 38.1014C14.9059 38.7968 13.9627 39.1875 12.9792 39.1875C11.9957 39.1875 11.0524 38.7968 10.357 38.1014C9.66153 37.4059 9.27083 36.4627 9.27083 35.4792C9.27083 34.4957 9.66153 33.5524 10.357 32.857C11.0524 32.1615 11.9957 31.7708 12.9792 31.7708C13.9627 31.7708 14.9059 32.1615 15.6014 32.857C16.2968 33.5524 16.6875 34.4957 16.6875 35.4792Z" stroke="#7C6A0A" stroke-width="3.70833" stroke-linecap="round" stroke-linejoin="round"/>
</svg>
